<?xml version="1.0" encoding="utf-8"?>
<!-- Generator: Adobe Illustrator 30.5.1, SVG Export Plug-In . SVG Version: 9.03 Build 0)  -->
<svg version="1.0" xmlns="http://www.w3.org/2000/svg" xmlns:xlink="http://www.w3.org/1999/xlink" x="0px" y="0px"
	 viewBox="0 0 1254 1254" style="enable-background:new 0 0 1254 1254;" xml:space="preserve">
<style type="text/css">
	.st0{fill:#FFFFFF;}
	.st1{fill:#078031;}
	.st2{fill:#EB327E;}
</style>
<g id="Layer_2">
</g>
<g id="Layer_1">
	<g>
		<path class="st0" d="M1219.6,1251.9H36.5c-19,0-34.4-15.4-34.4-34.4V34.4C2.1,15.4,17.5,0,36.5,0h1183c19,0,34.4,15.4,34.4,34.4
			v1183C1254,1236.5,1238.6,1251.9,1219.6,1251.9z"/>
		<g>
			<path class="st1" d="M878.6,667.7l-72.4,252.5l-80.5-252.5h-92l-40.4,122.8l-35.8,114.7c-1.2,4.1-2.6,7.6-6,8.6l-70-246.1h-107
				l50.2,162.5l74.8,241.8l93.9-0.2c0,0,42.8-138.1,43-138.3l12.7-46.1L614.2,857l46.6-2.4l17.9-49.5l17.9,49.7l46.4,2.4l-35.8,30.3
				l55.2,184h94.6L941,807l43-139.3H878.6z"/>
			<path class="st2" d="M623.7,474.7c-54.2,8.1-103.9,19.1-155.5,31.5C413.9,582.4,365,659.6,316.5,739.2c-4.8,7.9-20.1,5-26,1.9
				c-8.1-4.3-13.4-11.9-11.9-23.2c39.4-66.7,82.9-127.8,128.8-195.4c-39.2,7.9-76.5,19.6-112.8,34.6c-12.2,5-24.4,8.4-34.9-2.4
				c-6.5-10-2.2-22.9,9.1-28.2c54-22,113.2-34.4,170.1-49.2c43.7-61.4,87.4-119.9,136.4-176.6C617.3,252.2,676,189.4,730,159.3
				c8.8-5,19.8-7.6,29.4-2.9c11.2,5.7,18.2,22.5,12.9,36.3c-30.6,79.6-61.2,158.2-87.4,238.9l42.1-4.1c9.3-1,16.5,7.2,17.2,14.6
				c0.7,9.6-6.5,16.7-16.2,17.9l-54.7,6.9l-45.6,134c-10.3,30.3-20.3,59.3-26.8,90.6c-1.9,9.6-3.6,16.5-15.3,17.9
				c-7.2,1-15.3,0-20.3-4.8c-6-5.7-7.9-13.6-6.9-22.7c8.1-32.7,17.7-63.8,28.2-95.8L623.7,474.7z M637.1,437.9l76.5-219.3
				c-44.4,30.1-75,68.1-108.9,104.2c-38.7,46.1-75,91.7-109.4,142.2L637.1,437.9z"/>
			<path class="st2" d="M1051.1,278.3C925.2,126.8,731.2,60.2,537.5,106.7C390,142.1,266.5,239.8,198.4,375
				c-58.1,115.2-75,244.2-51.8,371.3c12.4,68.6,36.8,130.2,66.9,194.2c-33.2-39.7-54.5-83.4-73.1-130.2
				c-29.6-74.8-43.2-152.7-39.9-233.9c6.7-150.8,75.5-292.9,189.5-391.8c92.2-80,210-126.9,331.9-132.6
				c175.1-8.1,337.8,76.5,431.5,223.6c-0.5,1.2,0.2,1.7,1,1.9c3.6,1.4,2.4,6.7-1.7,4.5C1052.6,279.5,1051.4,278.8,1051.1,278.3z"/>
			<path class="st1" d="M246,1000.8c89.4,90.6,198.8,146.9,324,157.9c189,16.5,361.2-79.3,461.8-237
				c53.5-85.5,84.3-181.6,90.3-282.6c7.4-99.2-11-192.6-41.8-286.7c75,128.8,92.9,282.4,60,424.6
				c-26.8,110.1-83.1,208.8-165.8,285.5c-83.9,76.7-188.5,125.4-302,136.4c-92,7.2-181.1-9.6-262.6-51.8
				C345.1,1111.9,286.1,1064.8,246,1000.8z"/>
		</g>
	</g>
</g>
</svg>
